# xmcd CD database file
#
# Track frame offsets:
#	150
#	18902
#	36170
#	51122
#	67905
#	100632
#	124337
#	147967
#	165222
#	185615
#
# Disc length: 2666 seconds
#
# Revision: 4
# Processed by: cddbd v1.5.2PL0 Copyright (c) Steve Scherf et al.
# Submitted via: CDex 1.51
#
DISCID=7c0a680a
DTITLE=Tina Turner - Private Dancer
DYEAR=1984
DGENRE=Soul
TTITLE0=I Might Have Been Queen
TTITLE1=What's Love Got To Do WIth It
TTITLE2=Show Some Respect
TTITLE3=I Can't Stand The Rain
TTITLE4=Private Dancer
TTITLE5=Let's Stay Together
TTITLE6=Better Be Good To Me
TTITLE7=Steel Claw
TTITLE8=Help
TTITLE9=1984
EXTD=YEAR: 1984
EXTT0=
EXTT1=
EXTT2=
EXTT3=
EXTT4=
EXTT5=
EXTT6=
EXTT7=
EXTT8=
EXTT9=
PLAYORDER=
